<?xml version="1.0" encoding="UTF-8"?><svg id="a" xmlns="http://www.w3.org/2000/svg" xmlns:xlink="http://www.w3.org/1999/xlink" viewBox="0 0 1000 340"><defs><style>.v{fill:#fff;}.w{fill:url(#r);}.x{fill:url(#l);}.y{fill:url(#f);}.a`{clip-path:url(#u);}.aa{clip-path:url(#o);}.ab{fill:url(#p);}.ac{clip-path:url(#m);}.ad{fill:#1870b7;}.ae{clip-path:url(#b);}.af{clip-path:url(#c);}.ag{clip-path:url(#t);}.ah{clip-path:url(#e);}.ai{fill:url(#h);}.aj{fill:url(#d);}.ak{fill:none;}.al{fill:#999;}.am{fill:url(#n);}.an{clip-path:url(#q);}.ao{fill:url(#j);}.ap{clip-path:url(#s);}.aq{clip-path:url(#i);}.ar{clip-path:url(#k);}.as{clip-path:url(#g);}</style><clipPath id="b"><rect class="ak" x="17.06" y="8.82" width="965.88" height="322.36"/></clipPath><clipPath id="c"><path class="ak" d="M80.1,41.89c-15.76,0-28.53,12.77-28.53,28.53v197.56s0,.08,0,.12c1.52-40.09,30.93-71.68,87.38-96.02,3.17-1.36,6.43-2.71,9.77-4.03,47.22-19.17,98.58-35.73,153.79-49.06v-48.57c0-15.76-12.77-28.53-28.53-28.53H80.1Z"/></clipPath><linearGradient id="d" x1="-.86" y1="-313.24" x2=".14" y2="-313.24" gradientTransform="translate(-107895.63 73.79) rotate(-90) scale(345.02 -345.02)" gradientUnits="userSpaceOnUse"><stop offset="0" stop-color="#0f8fcf"/><stop offset=".46" stop-color="#0f8fcf"/><stop offset=".71" stop-color="#186fb6"/><stop offset=".77" stop-color="#185f9e"/><stop offset=".93" stop-color="#183561"/><stop offset="1" stop-color="#183561"/></linearGradient><clipPath id="e"><path class="ak" d="M148.72,168.05c-3.34,1.32-6.6,2.66-9.77,4.03-56.46,24.34-85.86,55.93-87.38,96.02,0,1.03,.07,2.04,.18,3.04,.1,.86,.23,1.7,.4,2.53,2.65,13.01,14.15,22.81,27.94,22.81h193.89c15.76,0,28.53-12.77,28.53-28.53V118.99c-55.21,13.34-106.58,29.9-153.79,49.06"/></clipPath><linearGradient id="f" x1="-.79" y1="-313.18" x2=".21" y2="-313.18" gradientTransform="translate(-111753.81 99.64) rotate(-90) scale(357.4 -357.4)" gradientUnits="userSpaceOnUse"><stop offset="0" stop-color="#0f8fcf"/><stop offset=".28" stop-color="#0f8fcf"/><stop offset=".49" stop-color="#186fb6"/><stop offset=".56" stop-color="#185f9e"/><stop offset=".77" stop-color="#183561"/><stop offset="1" stop-color="#183561"/></linearGradient><clipPath id="g"><path class="ak" d="M340.01,41.89c-9.64,0-17.46,7.82-17.46,17.46v56.29c48.4-10.87,99.65-19.27,153.56-24.81v-31.48c0-9.64-7.82-17.46-17.46-17.46h-118.65Z"/></clipPath><linearGradient id="h" y1="-313.9" y2="-313.9" gradientTransform="translate(-107902.33 47.32) rotate(-90) scale(345.02 -345.02)" xlink:href="#d"/><clipPath id="i"><path class="ak" d="M322.55,115.63v64.59c0,9.64,7.82,17.46,17.46,17.46h118.65c9.64,0,17.46-7.82,17.46-17.46V90.82c-53.91,5.54-105.16,13.94-153.56,24.81"/></clipPath><linearGradient id="j" y1="-313.82" y2="-313.82" gradientTransform="translate(-111759.58 69.28) rotate(-90) scale(357.4 -357.4)" xlink:href="#f"/><clipPath id="k"><path class="ak" d="M504.66,41.89c-9.64,0-17.46,7.82-17.46,17.46v30.53c18.06-1.73,36.41-3.15,55.05-4.22,33.67-1.94,66.5-3.79,98.51-5.51v-20.79c0-9.64-7.82-17.46-17.46-17.46h-118.65Z"/></clipPath><linearGradient id="l" y1="-314.37" y2="-314.37" gradientTransform="translate(-107901.03 27.34) rotate(-90) scale(345.02 -345.02)" xlink:href="#d"/><clipPath id="m"><path class="ak" d="M542.26,85.65c-18.64,1.08-36.99,2.49-55.05,4.22v90.35c0,9.64,7.82,17.46,17.46,17.46h118.65c9.64,0,17.46-7.82,17.46-17.46V80.13c-32.01,1.72-64.84,3.57-98.51,5.51"/></clipPath><linearGradient id="n" y1="-314.28" y2="-314.28" gradientTransform="translate(-111757.07 46.54) rotate(-90) scale(357.4 -357.4)" xlink:href="#f"/><clipPath id="o"><path class="ak" d="M669.31,41.89c-9.64,0-17.46,7.82-17.46,17.46v20.82c53.64-2.86,104.86-5.33,153.49-7.22v-15.24c-.83-8.87-8.29-15.81-17.38-15.81h-118.65Z"/></clipPath><linearGradient id="p" y1="-314.84" y2="-314.84" gradientTransform="translate(-107898.42 7.97) rotate(-90) scale(345.02 -345.02)" xlink:href="#d"/><clipPath id="q"><path class="ak" d="M651.86,80.16v100.06c0,9.64,7.82,17.46,17.46,17.46h118.65c9.09,0,16.55-6.94,17.38-15.81V72.94c-48.63,1.89-99.85,4.36-153.49,7.22"/></clipPath><linearGradient id="r" y1="-314.73" x2=".21" y2="-314.73" gradientTransform="translate(-111754.01 24.4) rotate(-90) scale(357.4 -357.4)" xlink:href="#f"/><clipPath id="s"><rect class="ak" x="17.06" y="8.82" width="965.88" height="322.36"/></clipPath><clipPath id="t"><rect class="ak" x="17.06" y="8.82" width="965.88" height="322.36"/></clipPath><clipPath id="u"><rect class="ak" x="17.06" y="8.82" width="965.88" height="322.36"/></clipPath></defs><g class="ae"><path class="al" d="M839.58,306.23c0,13.76-10.58,24.94-23.46,24.94H40.5c-12.9,0-23.43-11.18-23.43-24.94V33.73c0-13.71,10.53-24.91,23.43-24.91H816.12c12.88,0,23.46,11.2,23.46,24.91V306.23Z"/><path class="v" d="M51.95,22.73c-11.22,0-20.31,9.29-20.31,20.69v252.26c0,11.4,9.1,20.67,20.31,20.67H804.86c11.22,0,20.34-9.28,20.34-20.67V43.42c0-11.4-9.12-20.69-20.34-20.69H51.95Z"/></g><g class="af"><rect class="aj" x="38.72" y="27.44" width="276.65" height="255.11" transform="translate(-17.57 22.73) rotate(-7)"/></g><g class="ah"><rect class="y" x="40.44" y="102.39" width="273.2" height="210.68" transform="translate(-27.19 26.66) rotate(-8)"/></g><g class="as"><rect class="ai" x="318.63" y="32.8" width="161.41" height="91.91" transform="translate(-6.62 49.25) rotate(-7)"/></g><g class="aq"><rect class="ao" x="315.86" y="80.65" width="166.94" height="127.19" transform="translate(-16.19 56.98) rotate(-8)"/></g><g class="ar"><rect class="x" x="484.85" y="32.71" width="158.27" height="66.34" transform="translate(-3.82 69.22) rotate(-7)"/></g><g class="ac"><rect class="am" x="479.77" y="70.02" width="168.43" height="137.77" transform="translate(-13.84 79.84) rotate(-8)"/></g><g class="aa"><rect class="ab" x="650.1" y="32.68" width="157.01" height="56.7" transform="translate(-2.01 89.25) rotate(-7)"/></g><g class="an"><rect class="w" x="643.92" y="62.87" width="169.35" height="144.88" transform="translate(-11.74 102.72) rotate(-8)"/></g><g class="ap"><path class="v" d="M201.96,120.77c.06,3.21-.69,4.84-5.58,4.92-10.15,.18-19.02-2.83-14.32-13.1,2.01-3.62,5.05-7,.96-8.95-4.9-2.32-6.77,4.59-13.71,1.43-5.3-2.66-.98-8.46,.6-11.68,1.93-4.49,8.37-7.07,13.98-7.96,5.7-.1-2.24,9.33-.98,11.75,1.23,2.42,10.1-1.36,13.02,3.02,2.94,4.35,5.91,13.7,6.03,20.57m-44.56,88.66c-1.66,.03-8.37,7.41-8.5-.28,0-.43,3.84-12.6,4.26-12.6,1.97-2.49,.99-13.4,.92-17.39-.14-7.82-4.27-12.52-4.4-19.79-.07-4.09,10.65-11.98,15.2-7.95,4.56,4.33,6.32,10.76,6.47,19.61,.19,10.64-5.46,38.25-13.94,38.4m48.73-132.88c-4.46,.49-4.51-2.38-8.15-3.88-4.15-1.97-9.85-2.68-13.84-1.03-5.19,2.55-10.8,6.29-14.76,12.06-2.75,4.5-3.5,10.54-5.82,15.86-1.9,4.89-7.56,6.99-9.88,11.89-3.92,7.8-5.9,11.43-9.79,22.85-2.63,7.8-5.99,24.03-6.98,38.21-.36,4.46-.36,23.14,1.26,27.08,2.53,6.45,3.04,11.68,3.96,17,.96,8.02-.13,14.97-5.74,19.11-6.85,5.36-29.21,19.57-4.93,17.92,4.43-.08,10.08,.24,14.91-1.53,3.25-1.26,5.27-1.67,6.51-.11,3.29,3.16,.49,7.33,1.75,10.95,.93,2.41,3.34,3.57,6.61,5.52,4.89,3.63,14.7,4.6,11.81,1.86-2.91-2.37,2.02,.74,3.65,1.59,1.2,.35,2.06,1.11,2.41,.69,.83-.75-.92-7.22-5.41-9.17-4.29-2.08-7.89-5.28-8.05-7.75,2.3,2.17,6.95,5.06,10.27,5.56,5.67,1.05,21.12,3.69,12.54-.22-3.61-1.98,4.05-.54,5.27-.56,6.46,1.11,8.46-1.35,1.5-4.05-3.17-1.2-1.59-1.23-7.28-1.88-4.49-.37-8.56-.66-8.61-3.1-.78-4.96,3.3-12.76,6.42-18.7-3.65,4.23-7.44,8.56-9.43,12.74-.84,2.08-4.64,5.14-8.4,7.67-.06,.04-.56,.19-1.15,.36,7.37-4.97,13.47-22,18.6-28.91,2.35-3.14,7.53-8.29,9.98-11.51,1.82-5.68,3.4-11.58,6.31-20.19,4.96-16.71,6.06-23.61,5.73-42.58-.12-6.93-4.71-37.61-7.69-45.75-1.26-3.95-4.16-7.11-3.44-10.44,.82-2.06,3.19-4.06,5.14-5.71,2.46-1.71,4.84-4.18,9.29-5.04,10.82-2.61,16.57-1.13,17.74-2.34,1.56-1.26-4.66-6.81-22.33-4.46"/></g><polygon class="v" points="355.59 74.95 385.37 74.95 385.37 104.31 411.5 74.95 446.46 74.95 413.28 109.13 449.97 165.82 414.27 165.82 392.45 129.57 385.37 137.07 385.37 165.82 355.59 165.82 355.59 74.95"/><polygon class="v" points="520.63 74.95 550.4 74.95 550.4 104.31 576.52 74.95 611.49 74.95 578.3 109.13 615.05 165.82 579.34 165.82 557.49 129.57 550.4 137.07 550.4 165.82 520.63 165.82 520.63 74.95"/><polygon class="v" points="686.97 74.46 770.29 74.46 770.29 98.28 743.55 98.28 743.55 165.29 713.74 165.29 713.74 98.28 686.97 98.28 686.97 74.46"/><g class="ag"><path class="ad" d="M322.61,221.92h13.05v33.15h.32c1.71-2.78,3.53-5.35,5.24-7.81l18.82-25.34h16.25l-24.81,30.69,26.41,41.38h-15.4l-20.42-33.04-6.42,7.7v25.34h-13.05v-72.07Z"/><path class="ad" d="M385.39,258.71c0-7.06-.11-12.08-.43-16.79h11.44l.43,9.94h.43c2.57-7.38,8.66-11.12,14.22-11.12,1.28,0,2.03,.11,3.1,.32v12.4c-1.07-.21-2.25-.43-3.85-.43-6.31,0-10.59,4.06-11.76,9.94-.21,1.18-.43,2.57-.43,4.06v26.95h-13.15v-35.29Z"/><path class="ad" d="M450.62,268.54c-9.3-.21-18.18,1.82-18.18,9.73,0,5.13,3.32,7.49,7.48,7.49,5.24,0,9.09-3.42,10.27-7.17,.32-.96,.43-2.03,.43-2.89v-7.16Zm1.71,25.45l-.86-5.77h-.32c-3.21,4.06-8.66,6.95-15.4,6.95-10.48,0-16.36-7.59-16.36-15.51,0-13.15,11.66-19.78,30.9-19.68v-.85c0-3.42-1.39-9.09-10.59-9.09-5.13,0-10.48,1.6-14.01,3.85l-2.57-8.56c3.85-2.35,10.59-4.6,18.82-4.6,16.68,0,21.49,10.59,21.49,21.92v18.82c0,4.7,.21,9.3,.75,12.51h-11.87Z"/><path class="ad" d="M492,227.05v14.86h12.51v9.84h-12.51v22.99c0,6.31,1.71,9.62,6.74,9.62,2.25,0,3.96-.32,5.13-.64l.21,10.05c-1.92,.75-5.35,1.28-9.52,1.28-4.81,0-8.88-1.6-11.34-4.28-2.78-3-4.06-7.7-4.06-14.54v-24.49h-7.49v-9.84h7.49v-11.76l12.83-3.1Z"/><path class="ad" d="M524.2,268.01c0,10.05,4.92,17.64,12.94,17.64,7.49,0,12.73-7.38,12.73-17.86,0-8.13-3.64-17.43-12.62-17.43s-13.05,8.98-13.05,17.64m39.25-.54c0,19.14-13.47,27.7-26.73,27.7-14.76,0-26.09-10.16-26.09-26.84s11.23-27.59,26.94-27.59,25.88,10.91,25.88,26.73"/><path class="ad" d="M612.53,292.39c-2.78,1.28-8.23,2.67-14.76,2.67-16.25,0-26.84-10.37-26.84-26.52s10.69-27.8,28.98-27.8c4.81,0,9.73,1.07,12.72,2.46l-2.35,9.84c-2.14-.96-5.24-2.03-9.94-2.03-10.05,0-16.04,7.38-15.93,16.9,0,10.69,6.95,16.79,15.93,16.79,4.6,0,7.8-.96,10.37-2.03l1.82,9.73Z"/><path class="ad" d="M622.26,218.07h13.26v31.01h.21c1.6-2.46,3.74-4.49,6.52-5.99,2.57-1.5,5.67-2.35,8.98-2.35,8.88,0,18.18,5.88,18.18,22.56v30.69h-13.15v-29.19c0-7.59-2.78-13.26-10.05-13.26-5.13,0-8.77,3.42-10.16,7.38-.43,1.07-.54,2.46-.54,3.96v31.12h-13.26v-75.92Z"/><path class="ad" d="M689.95,241.92l5.45,23.63c1.18,5.56,2.35,11.23,3.32,16.9h.21c1.07-5.67,2.78-11.44,4.28-16.79l6.74-23.74h10.69l6.52,23.1c1.6,6.1,2.99,11.76,4.17,17.43h.21c.86-5.67,2.03-11.34,3.42-17.43l5.77-23.1h12.94l-16.36,52.08h-12.19l-6.2-21.17c-1.6-5.45-2.78-10.37-3.96-16.68h-.21c-1.07,6.42-2.46,11.55-3.96,16.68l-6.63,21.17h-12.3l-15.4-52.08h13.47Z"/><path class="ad" d="M762.14,241.92h13.26v52.08h-13.26v-52.08Zm14.01-14.54c0,3.96-2.89,7.06-7.49,7.06s-7.27-3.1-7.27-7.06,3-7.16,7.38-7.16,7.27,3.1,7.38,7.16"/></g><rect class="ad" x="792.08" y="218.07" width="13.26" height="75.92"/><g class="a`"><path class="ad" d="M948.44,313.34v-.24c-2.35-1.29-4.69-2.7-6.92-4.11l-17.25-11.62v-21.48l23.24,20.54,34.15-23.47v21.95l-23.59,13.85,5.63,4.58h17.96v17.84h-83.32v-17.84h50.11Z"/><path class="ad" d="M948.44,248.45v-.24c-2.35-1.29-4.69-2.7-6.92-4.11l-17.25-11.62v-21.48l23.24,20.54,34.15-23.47v21.95l-23.59,13.85,5.63,4.58h17.96v17.84h-83.32v-17.84h50.11Z"/><path class="ad" d="M908.65,182.73h15.61v-12.79h13.15v12.79h20.77c6.92,0,10.09-1.64,10.09-7.04,0-2.46-.12-3.52-.47-5.28l13.5-.12c.94,2.35,1.64,6.57,1.64,11.62,0,5.75-2.11,10.56-5.05,13.38-3.4,3.28-8.92,4.93-17.02,4.93h-23.47v7.63h-13.15v-7.63h-10.8l-4.81-17.49Z"/><path class="ad" d="M982.94,151.52c0,5.98-4.58,10.33-10.8,10.33s-10.92-4.34-10.92-10.56,4.46-10.45,10.92-10.45,10.8,4.23,10.8,10.56v.12Z"/><path class="ad" d="M948.55,92.26c-.94,0-2.23,.12-3.17,.24-4.81,1.06-8.8,4.93-8.8,10.45,0,8.1,7.28,12.32,16.31,12.32,9.74,0,15.84-4.81,15.84-12.2,0-5.16-3.52-9.27-8.57-10.33-1.29-.35-2.58-.47-4.11-.47h-7.51Zm-50.23-17.84h66.19c6.45,0,13.26-.23,17.13-.47v15.84l-8.45,.82v.24c6.45,3.64,9.74,10.56,9.74,17.96,0,13.61-11.62,24.53-29.46,24.53-19.36,.12-30.51-11.97-30.51-25.7,0-7.04,2.46-12.56,6.45-15.14v-.24h-31.1v-17.84Z"/><path class="ad" d="M946.44,25.37c-4.34,0-11.62,1.88-11.62,10.09,0,7.51,6.81,10.56,11.62,11.03V25.37Zm12.21,21.01c7.39-.59,10.91-7.86,10.91-16.19,0-6.1-.82-11.03-2.35-15.84l12.09-2.35c2.35,5.87,3.64,13.03,3.64,20.77,0,19.48-11.38,30.63-29.34,30.63-14.55,0-30.63-9.03-30.63-28.99,0-18.54,14.44-25.58,28.64-25.58,3.05,0,5.75,.35,7.04,.59V46.38Z"/></g></svg>